<?xml version="1.0" encoding="utf-8"?>
<!-- Generator: Adobe Illustrator 25.2.1, SVG Export Plug-In . SVG Version: 6.00 Build 0)  -->
<svg version="1.1" id="Layer_1" xmlns="http://www.w3.org/2000/svg" xmlns:xlink="http://www.w3.org/1999/xlink" x="0px" y="0px"
	 viewBox="0 0 1920 1080" style="enable-background:new 0 0 1920 1080;" xml:space="preserve">
<style type="text/css">
	.st0{fill:#E891BB;}
	.st1{fill:#6AC6DD;}
	.st2{fill:#D472AB;}
	.st3{fill:#ED6FA7;}
	.st4{fill:#1EAACF;}
	.st5{fill:#F08FB2;}
	.st6{fill:#674897;}
	.st7{fill:#67C5DC;}
	.st8{fill:#EA589A;}
</style>
<path class="st0" d="M875.1,808.41c96.13,57.91,191.46,23.2,241.21-1.5c23.08-11.32,52.14-25.58,81.4-54.27
	c0,0,31-30.43,57.86-82.91c8.11-15.86,15-33,15-33c5.73-14.58,10.38-29.56,13.93-44.82c-1.32-0.56-13.57,44-43.29,85
	c-69.49,97.18-197.59,112.2-253.23,98.73c0,0-64.85-13.24-128.91-68.06l-1.48-1.27c-15.83-11.87-38.14-31.86-54.26-62.56
	c-21-40-25.19-86.23-29-85.64c-0.69,0.11-1.54,1.79-1.49,11c0.07,12,0.13,19.57,0.56,33.89c0.2,6.77,0.19,10.71,0.22,12.52
	c1.61,81.25,49.29,143.54,49.29,143.54C831.4,770.12,847.2,791.61,875.1,808.41z"/>
<path class="st1" d="M1006.49,667.75c1,4.18,40.79,0.39,78.38-12.06c91.44-26.32,165.26-117.66,163.8-219.07
	c-6.44-127.33-95.36-187.32-171.36-209.01c-25.43-8.13-70.6-18.78-125.11-12.06c-75.58,9.36-134.06,47.69-134.21,47.36
	c-0.06-0.14,9.31-5.22,24.83-11.05c7.74-2.91,34.51-12.57,81.27-18.05c21-2.46,37-4.33,59.29-3.43
	c58.74,3.59,99.86,16.46,143.19,46.35c99.74,66.32,118.3,219.78,27.13,319.18C1093.48,658.46,1004.86,661.17,1006.49,667.75z"/>
<path class="st2" d="M743.44,621.78c0.57,0-3.15-31.52,8.56-73.21c9.48-33.77,22.8-51.84,26.38-56.53
	c21-28.23,63.09-60.9,125.11-47.48c38,9.47,55.73,50.41,65.57,44.47c3.23-1.95,1.58-6.26,6.59-20.92
	c2.72-7.85,6.19-15.42,10.36-22.61c4.9-8.73,12.15-21.66,26.38-33.6c22-17.28,41.85-24.77,75.49-22.61
	c13.49,1.28,36.91,3.44,55.27,20.6c12.23,11.44,17.9,25.49,26.26,46.18c5.77,14.3,7.24,22.4,7.67,22.28
	c0.87-55-35.43-104.55-109.29-100.11c-58.92,4.86-104.26,81.3-104.76,82.15c-0.26,0.36-5-2.59-6.54-3.52
	c-9.43-5.82-19.12-11.24-28.38-17.33c-19.42-12.78-55.41-9.91-59.54-9.55C758.7,442.44,730.84,564.71,743.44,621.78z"/>
<path class="st3" d="M1067.69,375.91c-4.5-4.32-6.5-7.86-13.58-12.91c-12.66-9.86-49.14-20.16-47.73-19.38
	c-43.62-9.92-84.19-3.78-84.3-3.77l0,0c-26.69,2.67-78.57,20-120.93,60.19c-72.21,68.45-74.4,162.94-74.52,178.47
	c-0.36,48.11,13.58,86.17,21.93,105.2c14.07,32.06,31.25,53.26,41.6,65.86c6,7.33,34.5,41.32,54.8,49.89
	c1.5,0.63,15,6.22,33.79,14.71l0,0c24.05,11.47,46.49,18,46.83,17.07c0.15-0.37-3.52-1.9-18.33-8.73
	c-10.06-4.63-31.34-14.51-38.44-18.08c-18.7-9.42-30.35-21.09-46.35-37.12c-19.48-19.41-36.1-41.49-49.37-65.57
	c-30-50.83-48.51-126.1-10.8-195.08c6.39-11.69,18.45-35.89,45.72-54.39c19.07-12.89,41.25-20.43,64.23-21.83
	c13.32-0.75,28-1.58,44.4,5.47c18,7.7,43.11,27,46.38,24.44l0.08-0.06c0.25-0.22,0.62-0.82,3.94-5.88
	c8.2-12.74,20.36-27.76,28.53-35.83c4.56-4.57,10-9.83,14-13.07c5.61-4.72,11.52-9.06,17.7-13c3.63-2.65,25.24-13.58,35.19-13.32
	C1069.03,378.91,1072.83,380.13,1067.69,375.91z"/>
<path class="st4" d="M948.23,839.39c-0.25,1.16-31.07-2.79-65.31-14.07c-17.85-5.85-35.15-13.24-51.7-22.11
	c-62.07-31.2-105.91-90.78-124.16-128.63c-72.12-143.28-27.57-327.12,102.5-407c43.51-25.55,85-30.25,117.57-34.16
	c27.7-3.32,63.56-7.3,108.53,3c141,29.29,222,164.72,157.38,302.82c-29.77,68.44-91.62,119-171.05,123c0-0.07,7.39-1.68,14.91-3.93
	c51.33-15.34,85.62-53.56,96.23-65.65c41.69-42.68,73.71-119.48,36.48-188c-20.14-41.76-67-71.47-89.57-81.27
	c-70.18-33-136.65-21.23-157.08-17.33c-90.65,15.29-158.73,85.34-180.21,125.85c-81.32,146.3-6.51,303.16,98.65,370.76
	C894.96,835.33,948.57,837.91,948.23,839.39z"/>
<path class="st5" d="M1284.5,591.91c-1.43-0.17-5.41,14.48-14.09,40.11c-9.4,27.8-29.68,66-46,84.87
	c-48.82,62-134.56,108.88-216.3,110.79c-17.12,0.6-95.51,3.34-158.15-44.59c-14.87-11.38-28-26.81-28.64-26.11
	c-0.93,1,6.36,36.37,38.17,59.21c77.82,55.86,186.12,34.16,210.42,29.58c53.16-11.48,83.7-25.3,130.4-67.86
	c32.43-32.75,58.19-65.12,72.36-128.13"/>
<path class="st0" d="M875.1,808.41c96.13,57.91,191.46,23.2,241.21-1.5c23.08-11.32,52.14-25.58,81.4-54.27
	c0,0,31-30.43,57.86-82.91c8.11-15.86,15-33,15-33c5.73-14.58,10.38-29.56,13.93-44.82c-1.32-0.56-13.57,44-43.29,85
	c-69.49,97.18-197.59,112.2-253.23,98.73c0,0-64.85-13.24-128.91-68.06l-1.48-1.27c-15.83-11.87-38.14-31.86-54.26-62.56
	c-21-40-25.19-86.23-29-85.64c-0.69,0.11-1.54,1.79-1.49,11c0.07,12,0.13,19.57,0.56,33.89c0.2,6.77,0.19,10.71,0.22,12.52
	c1.61,81.25,49.29,143.54,49.29,143.54C831.4,770.12,847.2,791.61,875.1,808.41z"/>
<path class="st1" d="M1006.49,667.75c1,4.18,40.79,0.39,78.38-12.06c91.44-26.32,165.26-117.66,163.8-219.07
	c-6.44-127.33-95.36-187.32-171.36-209.01c-25.43-8.13-70.6-18.78-125.11-12.06c-75.58,9.36-134.06,47.69-134.21,47.36
	c-0.06-0.14,9.31-5.22,24.83-11.05c7.74-2.91,34.51-12.57,81.27-18.05c21-2.46,37-4.33,59.29-3.43
	c58.74,3.59,99.86,16.46,143.19,46.35c99.74,66.32,118.3,219.78,27.13,319.18C1093.48,658.46,1004.86,661.17,1006.49,667.75z"/>
<path class="st2" d="M743.44,621.78c0.57,0-3.15-31.52,8.56-73.21c9.48-33.77,22.8-51.84,26.38-56.53
	c21-28.23,63.09-60.9,125.11-47.48c38,9.47,55.73,50.41,65.57,44.47c3.23-1.95,1.58-6.26,6.59-20.92
	c2.72-7.85,6.19-15.42,10.36-22.61c4.9-8.73,12.15-21.66,26.38-33.6c22-17.28,41.85-24.77,75.49-22.61
	c13.49,1.28,36.91,3.44,55.27,20.6c12.23,11.44,17.9,25.49,26.26,46.18c5.77,14.3,7.24,22.4,7.67,22.28
	c0.87-55-35.43-104.55-109.29-100.11c-58.92,4.86-104.26,81.3-104.76,82.15c-0.26,0.36-5-2.59-6.54-3.52
	c-9.43-5.82-19.12-11.24-28.38-17.33c-19.42-12.78-55.41-9.91-59.54-9.55C758.7,442.44,730.84,564.71,743.44,621.78z"/>
<path class="st3" d="M1067.69,375.91c-4.5-4.32-6.5-7.86-13.58-12.91c-12.66-9.86-49.14-20.16-47.73-19.38
	c-43.62-9.92-84.19-3.78-84.3-3.77l0,0c-26.69,2.67-78.57,20-120.93,60.19c-72.21,68.45-74.4,162.94-74.52,178.47
	c-0.36,48.11,13.58,86.17,21.93,105.2c14.07,32.06,31.25,53.26,41.6,65.86c6,7.33,34.5,41.32,54.8,49.89
	c1.5,0.63,15,6.22,33.79,14.71l0,0c24.05,11.47,46.49,18,46.83,17.07c0.15-0.37-3.52-1.9-18.33-8.73
	c-10.06-4.63-31.34-14.51-38.44-18.08c-18.7-9.42-30.35-21.09-46.35-37.12c-19.48-19.41-36.1-41.49-49.37-65.57
	c-30-50.83-48.51-126.1-10.8-195.08c6.39-11.69,18.45-35.89,45.72-54.39c19.07-12.89,41.25-20.43,64.23-21.83
	c13.32-0.75,28-1.58,44.4,5.47c18,7.7,43.11,27,46.38,24.44l0.08-0.06c0.25-0.22,0.62-0.82,3.94-5.88
	c8.2-12.74,20.36-27.76,28.53-35.83c4.56-4.57,10-9.83,14-13.07c5.61-4.72,11.52-9.06,17.7-13c3.63-2.65,25.24-13.58,35.19-13.32
	C1069.03,378.91,1072.83,380.13,1067.69,375.91z"/>
<path class="st4" d="M948.23,839.39c-0.25,1.16-31.07-2.79-65.31-14.07c-17.85-5.85-35.15-13.24-51.7-22.11
	c-62.07-31.2-105.91-90.78-124.16-128.63c-72.12-143.28-27.57-327.12,102.5-407c43.51-25.55,85-30.25,117.57-34.16
	c27.7-3.32,63.56-7.3,108.53,3c141,29.29,222,164.72,157.38,302.82c-29.77,68.44-91.62,119-171.05,123c0-0.07,7.39-1.68,14.91-3.93
	c51.33-15.34,85.62-53.56,96.23-65.65c41.69-42.68,73.71-119.48,36.48-188c-20.14-41.76-67-71.47-89.57-81.27
	c-70.18-33-136.65-21.23-157.08-17.33c-90.65,15.29-158.73,85.34-180.21,125.85c-81.32,146.3-6.51,303.16,98.65,370.76
	C894.96,835.33,948.57,837.91,948.23,839.39z"/>
<path class="st6" d="M742.41,665.91c-8-22.47-9.48-42.58-11.64-74.93c-1-15.55-4.49-42.52,5.89-81.2
	c42.07-141.06,172.15-193.87,289.27-159.03c0,0,21.15,5.72,31.87,15.45c3.04,2.75,5.92,5.69,8.6,8.79l3.36,4
	c7-0.62,36.86-2.56,62.93,16.08c0,0,20.33,15,29.46,35.17c1.3,2.86,2.33,5.71,2.33,5.71c3.98,8.96,7.1,18.28,9.33,27.83
	c1.84,7.87,2.77,14.62,3.27,14.55c1.44-1.68-2.8-32-3.88-33.54c-5.06-20.69-15.91-39.43-17.23-41.68
	c-6.73-11.37-14.74-21.93-23.87-31.47c-29.95-30.73-44.79-36.6-71.79-47.9c-66.75-28.17-148.69-15.5-189,3
	c-153.31,63.87-181.67,229-130.33,339.42c2.79,6.51,6.08,14,6.37,13.9C747.64,679.96,744.04,670.53,742.41,665.91z"/>
<path class="st5" d="M1284.5,591.91c-1.43-0.17-5.41,14.48-14.09,40.11c-9.4,27.8-29.68,66-46,84.87
	c-48.82,62-134.56,108.88-216.3,110.79c-17.12,0.6-95.51,3.34-158.15-44.59c-14.87-11.38-28-26.81-28.64-26.11
	c-0.93,1,6.36,36.37,38.17,59.21c77.82,55.86,186.12,34.16,210.42,29.58c53.16-11.48,83.7-25.3,130.4-67.86
	c32.43-32.75,58.19-65.12,72.36-128.13"/>
<path class="st0" d="M874.39,808.41c96.13,57.91,191.46,23.2,241.21-1.5c23.08-11.32,52.14-25.58,81.4-54.27
	c0,0,31-30.43,57.86-82.91c8.11-15.86,15-33,15-33c5.73-14.58,10.38-29.56,13.93-44.82c-1.32-0.56-13.57,44-43.29,85
	c-69.49,97.18-197.59,112.2-253.23,98.73c0,0-64.85-13.24-128.91-68.06l-1.48-1.27c-15.83-11.87-38.14-31.86-54.26-62.56
	c-21-40-25.19-86.23-29-85.64c-0.69,0.11-1.54,1.79-1.49,11c0.07,12,0.13,19.57,0.56,33.89c0.2,6.77,0.19,10.71,0.22,12.52
	c1.61,81.25,49.29,143.54,49.29,143.54C830.69,770.12,846.49,791.61,874.39,808.41z"/>
<path class="st1" d="M1005.78,667.75c1,4.18,40.79,0.39,78.38-12.06c91.44-26.32,165.26-117.66,163.8-219.07
	c-6.44-127.33-95.36-187.32-171.36-209.01c-25.43-8.13-70.6-18.78-125.11-12.06c-75.58,9.36-134.06,47.69-134.21,47.36
	c-0.06-0.14,9.31-5.22,24.83-11.05c7.74-2.91,34.51-12.57,81.27-18.05c21-2.46,37-4.33,59.29-3.43
	c58.74,3.59,99.86,16.46,143.19,46.35c99.74,66.32,118.3,219.78,27.13,319.18C1092.77,658.46,1004.15,661.17,1005.78,667.75z"/>
<path class="st2" d="M742.73,621.78c0.57,0-3.15-31.52,8.56-73.21c9.48-33.77,22.8-51.84,26.38-56.53
	c21-28.23,63.09-60.9,125.11-47.48c38,9.47,55.73,50.41,65.57,44.47c3.23-1.95,1.58-6.26,6.59-20.92
	c2.72-7.85,6.19-15.42,10.36-22.61c4.9-8.73,12.15-21.66,26.38-33.6c22-17.28,41.85-24.77,75.49-22.61
	c13.49,1.28,36.91,3.44,55.27,20.6c12.23,11.44,17.9,25.49,26.26,46.18c5.77,14.3,7.24,22.4,7.67,22.28
	c0.87-55-35.43-104.55-109.29-100.11c-58.92,4.86-104.26,81.3-104.76,82.15c-0.26,0.36-5-2.59-6.54-3.52
	c-9.43-5.82-19.12-11.24-28.38-17.33c-19.42-12.78-55.41-9.91-59.54-9.55C757.99,442.44,730.13,564.71,742.73,621.78z"/>
<path class="st3" d="M1066.98,375.91c-4.5-4.32-6.5-7.86-13.58-12.91c-12.66-9.86-49.14-20.16-47.73-19.38
	c-43.62-9.92-84.19-3.78-84.3-3.77l0,0c-26.69,2.67-78.57,20-120.93,60.19c-72.21,68.45-74.4,162.94-74.52,178.47
	c-0.36,48.11,13.58,86.17,21.93,105.2c14.07,32.06,31.25,53.26,41.6,65.86c6,7.33,34.5,41.32,54.8,49.89
	c1.5,0.63,15,6.22,33.79,14.71l0,0c24.05,11.47,46.49,18,46.83,17.07c0.15-0.37-3.52-1.9-18.33-8.73
	c-10.06-4.63-31.34-14.51-38.44-18.08c-18.7-9.42-30.35-21.09-46.35-37.12c-19.48-19.41-36.1-41.49-49.37-65.57
	c-30-50.83-48.51-126.1-10.8-195.08c6.39-11.69,18.45-35.89,45.72-54.39c19.07-12.89,41.25-20.43,64.23-21.83
	c13.32-0.75,28-1.58,44.4,5.47c18,7.7,43.11,27,46.38,24.44l0.08-0.06c0.25-0.22,0.62-0.82,3.94-5.88
	c8.2-12.74,20.36-27.76,28.53-35.83c4.56-4.57,10-9.83,14-13.07c5.61-4.72,11.52-9.06,17.7-13c3.63-2.65,25.24-13.58,35.19-13.32
	C1068.32,378.91,1072.12,380.13,1066.98,375.91z"/>
<path class="st7" d="M1148.82,573.05c12.6-16.16,22.18-34.45,28.29-54c3-9.48,13.82-45.94,3.93-85.89
	c-19.3-78-103.2-110.66-121-117.6c-8.67-3.38-51-18.81-108.66-14.18c-84.51,6.78-149.95,54.46-184.39,94.82
	c-131.34,160.69-30.34,389.41,139.3,437.89c22.51,6,41.59,7.27,41.71,6.53s-19.2-2-44-10.11c-18.85-6.27-36.78-15.01-53.32-26
	c-7.27-4.67-33.49-22.06-59.92-53.33c-65.58-79.82-94.59-191.16-50.74-288.9c56.2-120.39,176.84-158.59,281.87-143.7
	C1151.51,339.59,1217.28,459.41,1148.82,573.05z"/>
<path class="st6" d="M741.7,665.91c-8-22.47-9.48-42.58-11.64-74.93c-1-15.55-4.49-42.52,5.89-81.2
	c42.07-141.06,172.15-193.87,289.27-159.03c0,0,21.15,5.72,31.87,15.45c3.04,2.75,5.92,5.69,8.6,8.79l3.36,4
	c7-0.62,36.86-2.56,62.93,16.08c0,0,20.33,15,29.46,35.17c1.3,2.86,2.33,5.71,2.33,5.71c3.98,8.96,7.1,18.28,9.33,27.83
	c1.84,7.87,2.77,14.62,3.27,14.55c1.44-1.68-2.8-32-3.88-33.54c-5.06-20.69-15.91-39.43-17.23-41.68
	c-6.73-11.37-14.74-21.93-23.87-31.47c-29.95-30.73-44.79-36.6-71.79-47.9c-66.75-28.17-148.69-15.5-189,3
	c-153.31,63.87-181.67,229-130.33,339.42c2.79,6.51,6.08,14,6.37,13.9C746.93,679.96,743.33,670.53,741.7,665.91z"/>
<path class="st5" d="M1283.79,591.91c-1.43-0.17-5.41,14.48-14.09,40.11c-9.4,27.8-29.68,66-46,84.87
	c-48.82,62-134.56,108.88-216.3,110.79c-17.12,0.6-95.51,3.34-158.15-44.59c-14.87-11.38-28-26.81-28.64-26.11
	c-0.93,1,6.36,36.37,38.17,59.21c77.82,55.86,186.12,34.16,210.42,29.58c53.16-11.48,83.7-25.3,130.4-67.86
	c32.43-32.75,58.19-65.12,72.36-128.13"/>
<path class="st8" d="M938.94,836.62c0.11-0.3-38.48-7.34-74.86-35.17c-63.67-47.73-90.17-146.49-90.48-183.89
	c-0.21-28.19-8.46-114.25,41.7-152.75c23.8-18.26,55.31-22,54.92-23.28s-31.48-1.26-56.93,17.25c0,0-46.7,26.39-64.81,91.45
	C714.02,674.11,813.7,816.08,938.94,836.62z"/>
<path class="st0" d="M874.39,808.41c96.13,57.91,191.46,23.2,241.21-1.5c23.08-11.32,52.14-25.58,81.4-54.27
	c0,0,31-30.43,57.86-82.91c8.11-15.86,15-33,15-33c5.73-14.58,10.38-29.56,13.93-44.82c-1.32-0.56-13.57,44-43.29,85
	c-69.49,97.18-197.59,112.2-253.23,98.73c0,0-64.85-13.24-128.91-68.06l-1.48-1.27c-15.83-11.87-38.14-31.86-54.26-62.56
	c-21-40-25.19-86.23-29-85.64c-0.69,0.11-1.54,1.79-1.49,11c0.07,12,0.13,19.57,0.56,33.89c0.2,6.77,0.19,10.71,0.22,12.52
	c1.61,81.25,49.29,143.54,49.29,143.54C830.69,770.12,846.49,791.61,874.39,808.41z"/>
<path class="st1" d="M1005.78,667.75c1,4.18,40.79,0.39,78.38-12.06c91.44-26.32,165.26-117.66,163.8-219.07
	c-6.44-127.33-95.36-187.32-171.36-209.01c-25.43-8.13-70.6-18.78-125.11-12.06c-75.58,9.36-134.06,47.69-134.21,47.36
	c-0.06-0.14,9.31-5.22,24.83-11.05c7.74-2.91,34.51-12.57,81.27-18.05c21-2.46,37-4.33,59.29-3.43
	c58.74,3.59,99.86,16.46,143.19,46.35c99.74,66.32,118.3,219.78,27.13,319.18C1092.77,658.46,1004.15,661.17,1005.78,667.75z"/>
<path class="st2" d="M742.73,621.78c0.57,0-3.15-31.52,8.56-73.21c9.48-33.77,22.8-51.84,26.38-56.53
	c21-28.23,63.09-60.9,125.11-47.48c38,9.47,55.73,50.41,65.57,44.47c3.23-1.95,1.58-6.26,6.59-20.92
	c2.72-7.85,6.19-15.42,10.36-22.61c4.9-8.73,12.15-21.66,26.38-33.6c22-17.28,41.85-24.77,75.49-22.61
	c13.49,1.28,36.91,3.44,55.27,20.6c12.23,11.44,17.9,25.49,26.26,46.18c5.77,14.3,7.24,22.4,7.67,22.28
	c0.87-55-35.43-104.55-109.29-100.11c-58.92,4.86-104.26,81.3-104.76,82.15c-0.26,0.36-5-2.59-6.54-3.52
	c-9.43-5.82-19.12-11.24-28.38-17.33c-19.42-12.78-55.41-9.91-59.54-9.55C757.99,442.44,730.13,564.71,742.73,621.78z"/>
<path class="st7" d="M1148.82,573.05c12.6-16.16,22.18-34.45,28.29-54c3-9.48,13.82-45.94,3.93-85.89
	c-19.3-78-103.2-110.66-121-117.6c-8.67-3.38-51-18.81-108.66-14.18c-84.51,6.78-149.95,54.46-184.39,94.82
	c-131.34,160.69-30.34,389.41,139.3,437.89c22.51,6,41.59,7.27,41.71,6.53s-19.2-2-44-10.11c-18.85-6.27-36.78-15.01-53.32-26
	c-7.27-4.67-33.49-22.06-59.92-53.33c-65.58-79.82-94.59-191.16-50.74-288.9c56.2-120.39,176.84-158.59,281.87-143.7
	C1151.51,339.59,1217.28,459.41,1148.82,573.05z"/>
<path class="st6" d="M741.7,665.91c-8-22.47-9.48-42.58-11.64-74.93c-1-15.55-4.49-42.52,5.89-81.2
	c42.07-141.06,172.15-193.87,289.27-159.03c0,0,21.15,5.72,31.87,15.45c3.04,2.75,5.92,5.69,8.6,8.79l3.36,4
	c7-0.62,36.86-2.56,62.93,16.08c0,0,20.33,15,29.46,35.17c1.3,2.86,2.33,5.71,2.33,5.71c3.98,8.96,7.1,18.28,9.33,27.83
	c1.84,7.87,2.77,14.62,3.27,14.55c1.44-1.68-2.8-32-3.88-33.54c-5.06-20.69-15.91-39.43-17.23-41.68
	c-6.73-11.37-14.74-21.93-23.87-31.47c-29.95-30.73-44.79-36.6-71.79-47.9c-66.75-28.17-148.69-15.5-189,3
	c-153.31,63.87-181.67,229-130.33,339.42c2.79,6.51,6.08,14,6.37,13.9C746.93,679.96,743.33,670.53,741.7,665.91z"/>
<path class="st5" d="M1283.79,591.91c-1.43-0.17-5.41,14.48-14.09,40.11c-9.4,27.8-29.68,66-46,84.87
	c-48.82,62-134.56,108.88-216.3,110.79c-17.12,0.6-95.51,3.34-158.15-44.59c-14.87-11.38-28-26.81-28.64-26.11
	c-0.93,1,6.36,36.37,38.17,59.21c77.82,55.86,186.12,34.16,210.42,29.58c53.16-11.48,83.7-25.3,130.4-67.86
	c32.43-32.75,58.19-65.12,72.36-128.13"/>
</svg>
